<svg xmlns="http://www.w3.org/2000/svg" width="1200" height="675" viewBox="0 0 1200 675" fill="none">
  <defs>
    <linearGradient id="g1" x1="120" y1="40" x2="1080" y2="640" gradientUnits="userSpaceOnUse">
      <stop stop-color="#A855F7" stop-opacity="0.9"/>
      <stop offset="1" stop-color="#22D3EE" stop-opacity="0.9"/>
    </linearGradient>
    <linearGradient id="g2" x1="0" y1="0" x2="1" y2="1">
      <stop stop-color="#0F172A" stop-opacity="0.9"/>
      <stop offset="1" stop-color="#020617" stop-opacity="0.6"/>
    </linearGradient>
  </defs>
  <rect width="1200" height="675" rx="28" fill="url(#g2)"/>
  <circle cx="250" cy="170" r="170" fill="url(#g1)" fill-opacity="0.28"/>
  <circle cx="980" cy="520" r="240" fill="url(#g1)" fill-opacity="0.18"/>
  <rect x="110" y="190" width="540" height="320" rx="20" fill="#FFFFFF" fill-opacity="0.06" stroke="#FFFFFF" stroke-opacity="0.12"/>
  <rect x="690" y="150" width="400" height="370" rx="20" fill="#FFFFFF" fill-opacity="0.05" stroke="#FFFFFF" stroke-opacity="0.10"/>
  <rect x="160" y="250" width="340" height="18" rx="9" fill="#FFFFFF" fill-opacity="0.22"/>
  <rect x="160" y="290" width="420" height="14" rx="7" fill="#FFFFFF" fill-opacity="0.14"/>
  <rect x="160" y="330" width="390" height="14" rx="7" fill="#FFFFFF" fill-opacity="0.12"/>
  <rect x="740" y="220" width="300" height="18" rx="9" fill="#FFFFFF" fill-opacity="0.20"/>
  <rect x="740" y="260" width="250" height="14" rx="7" fill="#FFFFFF" fill-opacity="0.12"/>
  <rect x="740" y="300" width="320" height="14" rx="7" fill="#FFFFFF" fill-opacity="0.10"/>
  <text x="130" y="560" fill="#E5E7EB" fill-opacity="0.75" font-family="ui-sans-serif, system-ui" font-size="34" font-weight="700">Project Preview</text>
</svg>

